<svg width="32" height="47" viewBox="0 0 32 47" fill="none" xmlns="http://www.w3.org/2000/svg">
<path d="M0.156016 33.65C0.156016 43.055 5.57102 46.95 15.831 46.95C26.091 46.95 31.411 43.15 31.411 33.65V32.605H23.526V33.65C23.526 39.635 21.436 40.585 15.831 40.585C10.131 40.585 8.04102 39.635 8.04102 33.65V32.89C8.32602 27.095 9.75102 26.81 15.831 26.715C26.186 26.715 31.411 23.58 31.411 14.175C31.411 4.675 26.091 0.874998 15.831 0.874998C5.57102 0.874998 0.156016 4.77 0.156016 14.175V33.65ZM8.04102 14.175C8.04102 8.19 10.131 7.24 15.831 7.24C21.436 7.24 23.526 8.19 23.526 14.175C23.526 19.875 21.531 20.35 15.831 20.35C12.031 20.35 8.04102 21.49 8.04102 22.915V14.175Z" fill="#0A3871"/>
</svg>
